# This file uses centimeters as units for non-parametric coordinates.

mtllib ivr_body_marker.mtl
g default
v 0.850000 -0.000000 -0.000000
v 0.808398 -0.000000 -0.262664
v 0.687665 -0.000000 -0.499618
v 0.499618 -0.000000 -0.687665
v 0.262664 -0.000000 -0.808398
v 0.000000 -0.000000 -0.850000
v -0.262665 -0.000000 -0.808398
v -0.499618 -0.000000 -0.687665
v -0.687665 -0.000000 -0.499618
v -0.808398 -0.000000 -0.262665
v -0.850000 -0.000000 -0.000000
v -0.808398 -0.000000 0.262665
v -0.687665 -0.000000 0.499618
v -0.499618 -0.000000 0.687665
v -0.262665 -0.000000 0.808398
v -0.000000 -0.000000 0.850000
v 0.262665 -0.000000 0.808398
v 0.499618 -0.000000 0.687665
v 0.687665 -0.000000 0.499618
v 0.808398 -0.000000 0.262665
v 0.850000 0.075000 0.000000
v 0.808398 0.075000 -0.262664
v 0.687665 0.075000 -0.499618
v 0.499618 0.075000 -0.687665
v 0.262664 0.075000 -0.808398
v 0.000000 0.075000 -0.850000
v -0.262665 0.075000 -0.808398
v -0.499618 0.075000 -0.687665
v -0.687665 0.075000 -0.499618
v -0.808398 0.075000 -0.262665
v -0.850000 0.075000 -0.000000
v -0.808398 0.075000 0.262665
v -0.687665 0.075000 0.499618
v -0.499618 0.075000 0.687665
v -0.262665 0.075000 0.808398
v -0.000000 0.075000 0.850000
v 0.262665 0.075000 0.808398
v 0.499618 0.075000 0.687665
v 0.687665 0.075000 0.499618
v 0.808398 0.075000 0.262665
v 1.000000 0.075000 0.000000
v 0.951057 0.075000 -0.309017
v 0.809017 0.075000 -0.587785
v 0.587785 0.075000 -0.809017
v 0.309017 0.075000 -0.951057
v -0.000000 0.075000 -1.000000
v -0.309017 0.075000 -0.951057
v -0.587785 0.075000 -0.809017
v -0.809017 0.075000 -0.587785
v -0.951057 0.075000 -0.309017
v -1.000000 0.075000 0.000000
v -0.951057 0.075000 0.309017
v -0.809017 0.075000 0.587785
v -0.587785 0.075000 0.809017
v -0.309017 0.075000 0.951057
v 0.000000 0.075000 1.000000
v 0.309017 0.075000 0.951057
v 0.587786 0.075000 0.809017
v 0.809018 0.075000 0.587786
v 0.951057 0.075000 0.309017
v 1.000000 -0.000000 -0.000000
v 0.951057 -0.000000 -0.309017
v 0.809017 -0.000000 -0.587785
v 0.587785 -0.000000 -0.809017
v 0.309017 -0.000000 -0.951057
v -0.000000 -0.000000 -1.000000
v -0.309017 -0.000000 -0.951057
v -0.587785 -0.000000 -0.809017
v -0.809017 -0.000000 -0.587785
v -0.951057 -0.000000 -0.309017
v -1.000000 -0.000000 -0.000000
v -0.951057 -0.000000 0.309017
v -0.809017 -0.000000 0.587785
v -0.587785 -0.000000 0.809017
v -0.309017 -0.000000 0.951057
v 0.000000 -0.000000 1.000000
v 0.309017 -0.000000 0.951057
v 0.587786 -0.000000 0.809017
v 0.809018 -0.000000 0.587786
v 0.951057 -0.000000 0.309017
v -0.309017 0.075000 1.014225
v 0.000000 0.075000 1.391347
v -0.309017 -0.000000 1.014225
v 0.000000 -0.000000 1.391347
v 0.309017 0.075000 1.014225
v 0.309017 -0.000000 1.014225
vt 0.000000 1.000000
vt 0.050000 1.000000
vt 0.100000 1.000000
vt 0.150000 1.000000
vt 0.200000 1.000000
vt 0.250000 1.000000
vt 0.300000 1.000000
vt 0.350000 1.000000
vt 0.400000 1.000000
vt 0.450000 1.000000
vt 0.500000 1.000000
vt 0.550000 1.000000
vt 0.600000 1.000000
vt 0.650000 1.000000
vt 0.700000 1.000000
vt 0.750000 1.000000
vt 0.800000 1.000000
vt 0.850000 1.000000
vt 0.900000 1.000000
vt 0.950000 1.000000
vt 1.000000 1.000000
vt 0.000000 0.750000
vt 0.050000 0.750000
vt 0.100000 0.750000
vt 0.150000 0.750000
vt 0.200000 0.750000
vt 0.250000 0.750000
vt 0.300000 0.750000
vt 0.350000 0.750000
vt 0.400000 0.750000
vt 0.450000 0.750000
vt 0.500000 0.750000
vt 0.550000 0.750000
vt 0.600000 0.750000
vt 0.650000 0.750000
vt 0.700000 0.750000
vt 0.750000 0.750000
vt 0.800000 0.750000
vt 0.850000 0.750000
vt 0.900000 0.750000
vt 0.950000 0.750000
vt 1.000000 0.750000
vt 0.000000 0.500000
vt 0.050000 0.500000
vt 0.100000 0.500000
vt 0.150000 0.500000
vt 0.200000 0.500000
vt 0.250000 0.500000
vt 0.300000 0.500000
vt 0.350000 0.500000
vt 0.400000 0.500000
vt 0.450000 0.500000
vt 0.500000 0.500000
vt 0.550000 0.500000
vt 0.600000 0.500000
vt 0.650000 0.500000
vt 0.700000 0.500000
vt 0.750000 0.500000
vt 0.800000 0.500000
vt 0.850000 0.500000
vt 0.900000 0.500000
vt 0.950000 0.500000
vt 1.000000 0.500000
vt 0.000000 0.250000
vt 0.050000 0.250000
vt 0.100000 0.250000
vt 0.150000 0.250000
vt 0.200000 0.250000
vt 0.250000 0.250000
vt 0.300000 0.250000
vt 0.350000 0.250000
vt 0.400000 0.250000
vt 0.450000 0.250000
vt 0.500000 0.250000
vt 0.550000 0.250000
vt 0.600000 0.250000
vt 0.650000 0.250000
vt 0.700000 0.250000
vt 0.750000 0.250000
vt 0.800000 0.250000
vt 0.850000 0.250000
vt 0.900000 0.250000
vt 0.950000 0.250000
vt 1.000000 0.250000
vt 0.000000 0.000000
vt 0.050000 0.000000
vt 0.100000 0.000000
vt 0.150000 0.000000
vt 0.200000 0.000000
vt 0.250000 0.000000
vt 0.300000 0.000000
vt 0.350000 0.000000
vt 0.400000 0.000000
vt 0.450000 0.000000
vt 0.500000 0.000000
vt 0.550000 0.000000
vt 0.600000 0.000000
vt 0.650000 0.000000
vt 0.700000 0.000000
vt 0.750000 0.000000
vt 0.800000 0.000000
vt 0.850000 0.000000
vt 0.900000 0.000000
vt 0.950000 0.000000
vt 1.000000 0.000000
vt 0.750000 0.500000
vt 0.700000 0.500000
vt 0.700000 0.250000
vt 0.750000 0.250000
vt 0.800000 0.500000
vt 0.800000 0.250000
vn -0.951057 0.000000 0.309017
vn -1.000000 0.000000 0.000001
vn -1.000000 0.000000 0.000001
vn -0.951057 0.000000 0.309017
vn -0.809017 0.000000 0.587785
vn -0.809017 0.000000 0.587785
vn -0.587785 0.000000 0.809017
vn -0.587785 0.000000 0.809017
vn -0.309017 0.000000 0.951057
vn -0.309017 0.000000 0.951057
vn -0.000000 0.000000 1.000000
vn -0.000000 0.000000 1.000000
vn 0.309017 0.000000 0.951057
vn 0.309017 0.000000 0.951057
vn 0.587785 0.000000 0.809017
vn 0.587785 0.000000 0.809017
vn 0.809017 0.000000 0.587785
vn 0.809017 0.000000 0.587785
vn 0.951057 0.000000 0.309017
vn 0.951057 0.000000 0.309017
vn 1.000000 0.000000 0.000000
vn 1.000000 0.000000 0.000000
vn 0.951057 0.000000 -0.309017
vn 0.951057 0.000000 -0.309017
vn 0.809017 0.000000 -0.587785
vn 0.809017 0.000000 -0.587785
vn 0.587785 0.000000 -0.809017
vn 0.587785 0.000000 -0.809017
vn 0.309017 0.000000 -0.951057
vn 0.309017 0.000000 -0.951057
vn 0.000000 0.000000 -1.000000
vn 0.000000 0.000000 -1.000000
vn -0.309017 0.000000 -0.951057
vn -0.309017 0.000000 -0.951057
vn -0.587785 0.000000 -0.809017
vn -0.587785 0.000000 -0.809017
vn -0.809017 0.000000 -0.587785
vn -0.809017 0.000000 -0.587785
vn -0.951057 0.000000 -0.309016
vn -0.951057 0.000000 -0.309016
vn 0.000000 1.000000 0.000000
vn 0.000000 1.000000 0.000000
vn 0.000000 1.000000 0.000000
vn 0.000000 1.000000 0.000000
vn 0.000000 1.000000 0.000000
vn 0.000000 1.000000 0.000000
vn 0.000000 1.000000 0.000000
vn 0.000000 1.000000 0.000000
vn 0.000000 1.000000 0.000000
vn 0.000000 1.000000 0.000000
vn 0.000000 1.000000 0.000000
vn 0.000000 1.000000 0.000000
vn 0.000000 1.000000 0.000000
vn 0.000000 1.000000 0.000000
vn 0.000000 1.000000 -0.000000
vn 0.000000 1.000000 -0.000000
vn 0.000000 1.000000 0.000000
vn 0.000000 1.000000 0.000000
vn 0.000000 1.000000 0.000000
vn 0.000000 1.000000 0.000000
vn 0.000000 1.000000 0.000000
vn 0.000000 1.000000 0.000000
vn 0.000000 1.000000 -0.000000
vn 0.000000 1.000000 -0.000000
vn 0.000000 1.000000 -0.000000
vn 0.000000 1.000000 -0.000000
vn 0.000000 1.000000 -0.000000
vn 0.000000 1.000000 -0.000000
vn 0.000000 1.000000 0.000000
vn 0.000000 1.000000 0.000000
vn 0.000000 1.000000 0.000000
vn 0.000000 1.000000 0.000000
vn 0.000000 1.000000 -0.000000
vn 0.000000 1.000000 -0.000000
vn 0.000000 1.000000 -0.000000
vn 0.000000 1.000000 -0.000000
vn 0.000000 1.000000 -0.000000
vn 0.000000 1.000000 -0.000000
vn 0.000000 1.000000 -0.000000
vn 0.000000 1.000000 -0.000000
vn 0.951057 0.000000 -0.309017
vn 1.000000 -0.000000 -0.000001
vn 1.000000 -0.000000 -0.000001
vn 0.951057 0.000000 -0.309017
vn 0.809017 0.000000 -0.587785
vn 0.809017 0.000000 -0.587785
vn 0.587785 0.000000 -0.809017
vn 0.587785 0.000000 -0.809017
vn 0.309017 0.000000 -0.951057
vn 0.309017 0.000000 -0.951057
vn -0.000000 0.000000 -1.000000
vn -0.000000 0.000000 -1.000000
vn -0.309017 0.000000 -0.951057
vn -0.309017 0.000000 -0.951057
vn -0.587785 0.000000 -0.809017
vn -0.587785 0.000000 -0.809017
vn -0.809017 0.000000 -0.587785
vn -0.809017 0.000000 -0.587785
vn -0.951057 0.000000 -0.309017
vn -0.951057 0.000000 -0.309017
vn -1.000000 0.000000 0.000000
vn -1.000000 0.000000 0.000000
vn -0.951057 0.000000 0.309017
vn -0.951057 0.000000 0.309017
vn -0.809017 0.000000 0.587785
vn -0.809017 0.000000 0.587785
vn -0.587785 0.000000 0.809017
vn -0.587785 0.000000 0.809017
vn -0.453991 0.000000 0.891006
vn -0.453991 0.000000 0.891006
vn -0.000000 0.000000 1.000000
vn -0.773492 0.000000 0.633806
vn -0.773492 0.000000 0.633806
vn -0.000000 0.000000 1.000000
vn 0.773492 0.000000 0.633806
vn 0.773492 0.000000 0.633806
vn 0.587785 0.000000 0.809017
vn 0.453990 0.000000 0.891007
vn 0.453990 0.000000 0.891007
vn 0.587785 0.000000 0.809017
vn 0.809017 0.000000 0.587785
vn 0.809017 0.000000 0.587785
vn 0.951057 -0.000000 0.309016
vn 0.951057 -0.000000 0.309016
vn 0.000000 -1.000000 0.000000
vn 0.000000 -1.000000 0.000000
vn 0.000000 -1.000000 0.000000
vn 0.000000 -1.000000 0.000000
vn 0.000000 -1.000000 0.000000
vn 0.000000 -1.000000 0.000000
vn 0.000000 -1.000000 0.000000
vn 0.000000 -1.000000 0.000000
vn 0.000000 -1.000000 0.000000
vn 0.000000 -1.000000 0.000000
vn 0.000000 -1.000000 0.000000
vn 0.000000 -1.000000 0.000000
vn 0.000000 -1.000000 0.000000
vn 0.000000 -1.000000 0.000000
vn 0.000000 -1.000000 0.000000
vn 0.000000 -1.000000 0.000000
vn 0.000000 -1.000000 0.000000
vn 0.000000 -1.000000 0.000000
vn 0.000000 -1.000000 0.000000
vn 0.000000 -1.000000 0.000000
vn 0.000000 -1.000000 0.000000
vn 0.000000 -1.000000 0.000000
vn 0.000000 -1.000000 0.000000
vn 0.000000 -1.000000 0.000000
vn 0.000000 -1.000000 -0.000000
vn 0.000000 -1.000000 -0.000000
vn 0.000000 -1.000000 -0.000000
vn 0.000000 -1.000000 -0.000000
vn 0.000000 -1.000000 0.000000
vn 0.000000 -1.000000 0.000000
vn 0.000000 -1.000000 0.000000
vn 0.000000 -1.000000 0.000000
vn 0.000000 -1.000000 -0.000000
vn 0.000000 -1.000000 -0.000000
vn 0.000000 -1.000000 -0.000000
vn 0.000000 -1.000000 -0.000000
vn 0.000000 -1.000000 -0.000000
vn 0.000000 -1.000000 -0.000000
vn 0.000000 -1.000000 0.000000
vn 0.000000 -1.000000 0.000000
vn 0.000000 1.000000 0.000000
vn 0.000000 1.000000 0.000000
vn -1.000000 0.000000 0.000000
vn -1.000000 0.000000 0.000000
vn -1.000000 0.000000 0.000000
vn -1.000000 0.000000 0.000000
vn 0.000000 -1.000000 0.000000
vn 0.000000 -1.000000 0.000000
vn 0.000000 1.000000 0.000000
vn 0.000000 -1.000000 0.000000
vn 1.000000 0.000000 0.000000
vn 1.000000 0.000000 0.000000
vn 1.000000 0.000000 0.000000
vn 1.000000 0.000000 0.000000
s 1
g ivr_body_marker
usemtl initialShadingGroup
f 2/2/1 1/1/2 21/22/3 22/23/4
f 3/3/5 2/2/1 22/23/4 23/24/6
f 4/4/7 3/3/5 23/24/6 24/25/8
f 5/5/9 4/4/7 24/25/8 25/26/10
f 6/6/11 5/5/9 25/26/10 26/27/12
f 7/7/13 6/6/11 26/27/12 27/28/14
f 8/8/15 7/7/13 27/28/14 28/29/16
f 9/9/17 8/8/15 28/29/16 29/30/18
f 10/10/19 9/9/17 29/30/18 30/31/20
f 11/11/21 10/10/19 30/31/20 31/32/22
f 12/12/23 11/11/21 31/32/22 32/33/24
f 13/13/25 12/12/23 32/33/24 33/34/26
f 14/14/27 13/13/25 33/34/26 34/35/28
f 15/15/29 14/14/27 34/35/28 35/36/30
f 16/16/31 15/15/29 35/36/30 36/37/32
f 17/17/33 16/16/31 36/37/32 37/38/34
f 18/18/35 17/17/33 37/38/34 38/39/36
f 19/19/37 18/18/35 38/39/36 39/40/38
f 20/20/39 19/19/37 39/40/38 40/41/40
f 1/21/2 20/20/39 40/41/40 21/42/3
s 2
f 22/23/41 21/22/42 41/43/43 42/44/44
f 23/24/45 22/23/41 42/44/44 43/45/46
f 24/25/47 23/24/45 43/45/46 44/46/48
f 25/26/49 24/25/47 44/46/48 45/47/50
f 26/27/51 25/26/49 45/47/50 46/48/52
f 27/28/53 26/27/51 46/48/52 47/49/54
f 28/29/55 27/28/53 47/49/54 48/50/56
f 29/30/57 28/29/55 48/50/56 49/51/58
f 30/31/59 29/30/57 49/51/58 50/52/60
f 31/32/61 30/31/59 50/52/60 51/53/62
f 32/33/63 31/32/61 51/53/62 52/54/64
f 33/34/65 32/33/63 52/54/64 53/55/66
f 34/35/67 33/34/65 53/55/66 54/56/68
f 35/36/69 34/35/67 54/56/68 55/57/70
f 36/37/71 35/36/69 55/57/70 56/58/72
f 37/38/73 36/37/71 56/58/72 57/59/74
f 38/39/75 37/38/73 57/59/74 58/60/76
f 39/40/77 38/39/75 58/60/76 59/61/78
f 40/41/79 39/40/77 59/61/78 60/62/80
f 21/42/42 40/41/79 60/62/80 41/63/43
s 3
f 42/44/81 41/43/82 61/64/83 62/65/84
f 43/45/85 42/44/81 62/65/84 63/66/86
f 44/46/87 43/45/85 63/66/86 64/67/88
f 45/47/89 44/46/87 64/67/88 65/68/90
f 46/48/91 45/47/89 65/68/90 66/69/92
f 47/49/93 46/48/91 66/69/92 67/70/94
f 48/50/95 47/49/93 67/70/94 68/71/96
f 49/51/97 48/50/95 68/71/96 69/72/98
f 50/52/99 49/51/97 69/72/98 70/73/100
f 51/53/101 50/52/99 70/73/100 71/74/102
f 52/54/103 51/53/101 71/74/102 72/75/104
f 53/55/105 52/54/103 72/75/104 73/76/106
f 54/56/107 53/55/105 73/76/106 74/77/108
f 55/57/109 54/56/107 74/77/108 75/78/110
s 4
f 82/106/111 81/107/112 83/108/113 84/109/114
f 85/110/115 82/106/111 84/109/114 86/111/116
s 3
f 58/60/117 57/59/118 77/80/119 78/81/120
f 59/61/121 58/60/117 78/81/120 79/82/122
f 60/62/123 59/61/121 79/82/122 80/83/124
f 41/63/82 60/62/123 80/83/124 61/84/83
s 6
f 62/65/125 61/64/126 1/85/127 2/86/128
f 63/66/129 62/65/125 2/86/128 3/87/130
f 64/67/131 63/66/129 3/87/130 4/88/132
f 65/68/133 64/67/131 4/88/132 5/89/134
f 66/69/135 65/68/133 5/89/134 6/90/136
f 67/70/137 66/69/135 6/90/136 7/91/138
f 68/71/139 67/70/137 7/91/138 8/92/140
f 69/72/141 68/71/139 8/92/140 9/93/142
f 70/73/143 69/72/141 9/93/142 10/94/144
f 71/74/145 70/73/143 10/94/144 11/95/146
f 72/75/147 71/74/145 11/95/146 12/96/148
f 73/76/149 72/75/147 12/96/148 13/97/150
f 74/77/151 73/76/149 13/97/150 14/98/152
f 75/78/153 74/77/151 14/98/152 15/99/154
f 76/79/155 75/78/153 15/99/154 16/100/156
f 77/80/157 76/79/155 16/100/156 17/101/158
f 78/81/159 77/80/157 17/101/158 18/102/160
f 79/82/161 78/81/159 18/102/160 19/103/162
f 80/83/163 79/82/161 19/103/162 20/104/164
f 61/84/126 80/83/163 20/104/164 1/105/127
s 2
f 56/58/72 55/57/70 81/107/165 82/106/166
s off
f 55/57/167 75/78/168 83/108/169 81/107/170
s 6
f 75/78/153 76/79/155 84/109/171 83/108/172
s 2
f 57/59/74 56/58/72 82/106/166 85/110/173
s 6
f 76/79/155 77/80/157 86/111/174 84/109/171
s off
f 77/80/175 57/59/176 85/110/177 86/111/178
